# Blender v2.80 (sub 75) OBJ File: ''
# www.blender.org
mtllib brazo_R.mtl
o Cylinder.003
v 0.031011 0.143602 -0.146534
v -0.067282 0.140062 -0.162088
v -0.108481 0.156339 -0.055114
v -0.038919 0.169603 -0.027087
v -0.349237 -0.494189 0.226609
v -0.371161 -0.583571 0.162053
v -0.284802 -0.536190 0.149013
v -0.225283 -0.452469 0.226913
v -0.405351 -0.531161 -0.026158
v -0.405811 -0.648854 -0.023377
v -0.453460 -0.590274 0.124977
v -0.460791 -0.478327 0.171963
v -0.138840 0.150772 0.081070
v -0.049344 0.149453 0.124975
v -0.041014 0.078406 -0.194402
v -0.158543 0.090208 -0.204959
v -0.090427 -0.024532 -0.219939
v -0.208410 0.002581 -0.227829
v -0.101262 -0.269721 -0.160181
v -0.214647 -0.231266 -0.174311
v -0.172966 -0.170401 -0.191070
v -0.074778 -0.177750 -0.201706
v -0.092065 -0.112020 -0.211724
v -0.208008 -0.103824 -0.211100
v -0.273890 -0.103048 -0.045952
v -0.311130 -0.092064 0.156070
v -0.314807 -0.000974 0.151070
v -0.315957 0.007559 -0.045281
v -0.253749 0.103415 -0.050198
v -0.246766 0.098357 0.121070
v -0.309069 -0.247468 -0.047965
v -0.251823 -0.163654 -0.046623
v -0.343171 -0.212029 0.111070
v -0.287452 -0.143154 0.161070
v -0.211651 -0.097041 0.208719
v -0.204194 -0.157163 0.214302
v -0.139657 0.080007 0.169639
v -0.208182 -0.015069 0.203136
v -0.245587 -0.259212 0.158473
v 0.010162 -0.159946 -0.172140
v 0.013418 -0.108464 -0.170520
v -0.087886 -0.036983 0.210000
v -0.097491 -0.093464 0.215000
v -0.107096 -0.149946 0.220000
v -0.126305 -0.262909 0.170000
v -0.032907 0.034580 0.180000
v 0.022072 0.106142 0.140000
v 0.016674 -0.056983 -0.168899
v 0.003650 -0.262909 -0.115381
v 0.055550 0.039580 -0.146029
v 0.094427 0.106142 -0.103159
v 0.011272 0.136142 0.003815
v -0.193363 -0.556851 0.009877
v -0.129705 -0.471792 0.041730
v -0.075945 -0.443660 -0.142992
v -0.174310 -0.555066 -0.143845
v -0.242919 -0.613578 -0.162191
v -0.178567 -0.496669 -0.184713
v -0.238034 -0.819399 -0.096813
v -0.222771 -0.872630 -0.020898
v -0.265007 -0.891749 -0.012429
v -0.311886 -0.831173 -0.089511
v -0.223896 -0.790723 0.142174
v -0.206295 -0.875958 0.103915
v -0.187752 -0.864905 0.068613
v -0.170935 -0.794248 0.048707
v -0.300198 -0.815940 0.154192
v -0.240506 -0.891444 0.110775
v -0.172122 -0.793884 -0.059203
v -0.185933 -0.859237 0.010709
v -0.334059 -0.625497 -0.162831
v -0.304277 -0.492064 -0.194811
v -0.341630 -0.717652 -0.139169
v -0.415541 -0.727811 -0.006846
v -0.364950 -0.821057 0.110145
v -0.270345 -0.902292 0.085174
v -0.362832 -0.845728 0.003567
v -0.278333 -0.902147 0.042108
v -0.432610 -0.329340 0.168053
v -0.310131 -0.363162 0.231563
v -0.265993 -0.373252 -0.209218
v -0.380707 -0.394048 -0.036603
v -0.090143 -0.384202 0.041193
v -0.003738 -0.360957 -0.141490
v -0.125842 -0.398314 -0.191621
v -0.167278 -0.341382 0.239160
v -0.087333 -0.292909 0.010965
v -0.176625 -0.688359 0.039457
v -0.163962 -0.687856 -0.109879
v -0.435288 -0.674647 0.139635
v -0.353290 -0.684333 0.185316
v -0.248447 -0.721898 -0.141762
v -0.254856 -0.659758 0.172612
v -0.257943 -0.920241 0.079972
v -0.238865 -0.911438 0.092191
v -0.217023 -0.900774 0.092278
v -0.240081 -0.908211 0.001545
v -0.258834 -0.917878 0.013614
v -0.269472 -0.923959 0.034605
v -0.269146 -0.924824 0.058894
v -0.218239 -0.897547 0.001632
v -0.199161 -0.888744 0.013851
v -0.198271 -0.891107 0.080208
v -0.187632 -0.885026 0.059217
v -0.187958 -0.884161 0.034929
v 0.060102 -0.072443 0.153301
v 0.049934 -0.138919 0.098769
v 0.061424 -0.169888 0.018738
v 0.090923 -0.155518 -0.061384
v 0.129066 -0.100372 -0.116157
v 0.163742 -0.021958 -0.128193
v 0.183943 0.054828 -0.093669
v 0.183254 0.105608 -0.023547
v 0.161894 0.114258 0.059910
v 0.126645 0.078033 0.130205
v 0.088699 0.008434 0.165020
v -0.048467 -0.154946 0.023930
v 0.093111 0.024299 -0.102476
v 0.064614 -0.046485 -0.119241
v -0.012032 -0.031824 0.158504
v 0.028270 0.020633 0.136513
v 0.062227 -0.084222 -0.120429
v 0.016864 -0.118295 0.022109
v -0.026113 -0.114630 0.165834
v 0.068571 0.073091 0.107192
v 0.121609 0.073091 -0.071051
v -0.019072 -0.073227 0.162169
v 0.059840 -0.121960 -0.121616
v -0.153390 -1.012881 0.152296
v -0.112857 -1.086923 0.153526
v -0.090996 -1.078330 0.127831
v -0.131528 -1.004289 0.126601
v -0.230546 -0.966414 0.035732
v -0.213167 -1.029994 0.034436
v -0.213154 -1.031699 0.084826
v -0.230537 -0.967516 0.068309
v -0.118929 -0.996639 0.032283
v -0.078396 -1.070680 0.033513
v -0.091034 -1.073673 -0.009838
v -0.131566 -0.999631 -0.011067
v -0.078382 -1.072385 0.083904
v -0.118915 -0.998344 0.082674
v -0.112909 -1.080560 -0.034533
v -0.153441 -1.006519 -0.035763
v -0.178641 -1.021819 0.152873
v -0.138108 -1.095860 0.154103
v -0.191934 -0.951238 -0.009651
v -0.208259 -0.957016 -0.009278
v -0.178693 -1.015457 -0.035186
v -0.200554 -1.024049 -0.009492
v -0.222392 -0.962571 0.007333
v -0.177768 -0.949796 0.095316
v -0.169613 -0.945952 0.066917
v -0.169622 -0.944850 0.034341
v -0.177792 -0.946785 0.006315
v -0.208225 -0.961129 0.112300
v -0.191901 -0.955351 0.111927
v -0.222367 -0.965582 0.096335
v -0.138160 -1.089498 -0.033956
v -0.160021 -1.098091 -0.008262
v -0.200516 -1.028707 0.128177
v -0.159983 -1.102748 0.129407
v -0.093676 -1.159617 0.094961
v -0.102082 -1.162264 0.085472
v -0.106938 -1.163413 0.068814
v -0.106943 -1.162758 0.049452
v -0.102096 -1.160474 0.032572
v -0.093696 -1.157172 0.022699
v -0.083993 -1.153738 0.022477
v -0.075588 -1.151091 0.031967
v -0.070732 -1.149941 0.048624
v -0.070726 -1.150596 0.067987
v -0.075573 -1.152881 0.084867
v -0.083973 -1.156183 0.094740
v -0.172635 -1.104036 0.035666
v -0.172621 -1.105741 0.086056
vt 0.875000 0.924610
vt 0.875000 0.924610
vt 0.812500 0.924610
vt 0.812500 0.924610
vt 0.750000 0.765700
vt 0.750000 0.765700
vt 0.750000 0.765700
vt 0.750000 0.765700
vt 0.812500 0.765700
vt 0.812500 0.765700
vt 0.750000 0.765700
vt 0.750000 0.765700
vt 0.750000 0.924610
vt 0.750000 0.924610
vt 0.875000 0.888726
vt 0.875000 0.888726
vt 0.875000 0.852842
vt 0.875000 0.852842
vt 0.875000 0.765700
vt 0.875000 0.765700
vt 0.875000 0.809271
vt 0.875000 0.809271
vt 0.871942 0.831056
vt 0.868750 0.831056
vt 0.812500 0.831056
vt 0.750000 0.831056
vt 0.750000 0.852842
vt 0.812500 0.852842
vt 0.812500 0.888726
vt 0.750000 0.888726
vt 0.812500 0.765700
vt 0.812500 0.809271
vt 0.750000 0.765700
vt 0.750000 0.809271
vt 0.750000 0.831056
vt 0.750000 0.809271
vt 0.750000 0.888726
vt 0.750000 0.852842
vt 0.750000 0.765700
vt 0.875000 0.809271
vt 0.875000 0.831056
vt 0.750000 0.852842
vt 0.750000 0.831056
vt 0.750000 0.809271
vt 0.750000 0.765700
vt 0.750000 0.888726
vt 0.750000 0.924610
vt 0.875000 0.852842
vt 0.875000 0.765700
vt 0.875000 0.888726
vt 0.875000 0.924610
vt 0.812500 0.924610
vt 0.812500 0.765700
vt 0.812500 0.765700
vt 0.875000 0.765700
vt 0.875000 0.765700
vt 0.875000 0.765700
vt 0.875000 0.765700
vt 0.875000 0.765700
vt 0.875000 0.765700
vt 0.875000 0.765700
vt 0.875000 0.765700
vt 0.750000 0.765700
vt 0.750000 0.765700
vt 0.812500 0.765700
vt 0.812500 0.765700
vt 0.750000 0.765700
vt 0.750000 0.765700
vt 0.875000 0.765700
vt 0.875000 0.765700
vt 0.875000 0.765700
vt 0.875000 0.765700
vt 0.875000 0.765700
vt 0.812500 0.765700
vt 0.750000 0.765700
vt 0.750000 0.765700
vt 0.812500 0.765700
vt 0.812500 0.765700
vt 0.750000 0.765700
vt 0.750000 0.765700
vt 0.875000 0.765700
vt 0.812500 0.765700
vt 0.812500 0.765700
vt 0.875000 0.765700
vt 0.875000 0.765700
vt 0.750000 0.765700
vt 0.812500 0.765700
vt 0.812500 0.765700
vt 0.875000 0.765700
vt 0.750000 0.765700
vt 0.750000 0.765700
vt 0.875000 0.765700
vt 0.750000 0.765700
vt 0.750000 0.765700
vt 0.750000 0.765700
vt 0.750000 0.765700
vt 0.875000 0.765700
vt 0.843750 0.765700
vt 0.812500 0.765700
vt 0.781250 0.765700
vt 0.875000 0.765700
vt 0.875000 0.765700
vt 0.781250 0.765700
vt 0.812500 0.765700
vt 0.843750 0.765700
vt 0.750000 0.831056
vt 0.750000 0.809271
vt 0.812500 0.809271
vt 0.875000 0.809271
vt 0.875000 0.831056
vt 0.875000 0.852842
vt 0.875000 0.888726
vt 0.875000 0.924610
vt 0.750000 0.924610
vt 0.750000 0.888726
vt 0.750000 0.852842
vt 0.812500 0.809271
vt 0.000000 0.000000
vt 0.875000 0.888726
vt 0.875000 0.852842
vt 0.750000 0.852842
vt 0.750000 0.888726
vt 0.875000 0.831056
vt 0.812694 0.809271
vt 0.750000 0.809271
vt 0.750000 0.924610
vt 0.875000 0.924610
vt 0.750000 0.831056
vt 0.875000 0.809271
vt 0.472476 0.543502
vt 0.327330 0.278360
vt 0.249045 0.309130
vt 0.394192 0.574272
vt 0.709901 0.428555
vt 0.482221 0.423914
vt 0.476116 0.604361
vt 0.705955 0.545212
vt 0.601668 0.416206
vt 0.336525 0.420610
vt 0.325809 0.265371
vt 0.590951 0.260966
vt 0.574272 0.753958
vt 0.309130 0.758362
vt 0.330420 0.601058
vt 0.595562 0.596653
vt 0.394327 0.590951
vt 0.249181 0.325809
vt 0.327515 0.301144
vt 0.472662 0.566286
vt 0.562901 0.511497
vt 0.417754 0.246355
vt 0.704702 0.956514
vt 0.610504 0.764248
vt 0.668962 0.743557
vt 0.782918 0.918327
vt 0.743557 0.267374
vt 0.534281 0.174597
vt 0.503511 0.266609
vt 0.723665 0.326859
vt 0.979576 0.587824
vt 0.769412 0.641925
vt 0.783175 0.540229
vt 1.001352 0.512655
vt 0.787122 0.423572
vt 0.780194 0.323211
vt 0.861932 0.424520
vt 0.858835 0.511497
vt 0.668842 0.728828
vt 0.610384 0.749519
vt 0.712882 0.645573
vt 0.875247 0.586976
vt 0.883708 0.349351
vt 1.004448 0.425678
vt 0.988037 0.350199
vt 0.846882 0.875247
vt 0.719485 0.712882
vt 0.778563 0.906770
vt 0.700348 0.944957
vt 0.636383 0.988037
vt 0.559861 0.780194
vt 0.559773 0.769412
vt 0.633195 0.979576
vt 0.719572 0.723665
vt 0.850070 0.883708
vt 0.559773 0.641925
vt 0.394192 0.753958
vt 0.349023 0.596653
vt 0.530572 0.540229
vt 0.610384 0.701410
vt 0.472476 0.845970
vt 0.417939 0.269139
vt 0.563086 0.534281
vt 0.496225 0.238369
vt 0.641371 0.503511
vt 0.641235 0.486832
vt 0.496089 0.221690
vt 0.258643 0.640655
vt 0.288743 0.606674
vt 0.306133 0.547022
vt 0.306152 0.477685
vt 0.288795 0.417240
vt 0.258714 0.381883
vt 0.223968 0.381090
vt 0.193868 0.415071
vt 0.176478 0.474723
vt 0.176459 0.544060
vt 0.193816 0.604505
vt 0.223897 0.639861
vt 0.278360 0.850375
vt 0.030342 0.639861
vt 0.042165 0.604505
vt 0.486832 0.759601
vt 0.511497 0.848036
vt 0.728828 0.702745
vt 0.050346 0.544060
vt 0.052692 0.474723
vt 0.417939 0.179001
vt 0.496225 0.271014
vt 0.541394 0.428318
vt 0.541344 0.608766
vt 0.258643 0.018044
vt 0.223897 0.030342
vt 0.048574 0.415071
vt 0.039097 0.381090
vt 0.301144 0.176936
vt 0.223968 0.039097
vt 0.258714 0.026798
vt 0.496089 0.764005
vt 0.417754 0.852440
vt 0.210974 0.608766
vt 0.221690 0.764005
vt 0.238369 0.271014
vt 0.217079 0.428318
vt 0.559861 0.323211
vt 0.394327 0.260966
vt 0.472662 0.172531
vt 0.610504 0.266039
vn -0.0448 0.9778 -0.2046
vn 0.3304 -0.6876 0.6466
vn -0.9556 0.0279 -0.2933
vn -0.1076 0.9915 0.0732
vn 0.1228 0.5012 -0.8565
vn 0.1081 0.1915 -0.9755
vn -0.0567 -0.3336 -0.9410
vn 0.0115 -0.1277 -0.9918
vn -0.9712 -0.2221 -0.0866
vn -0.8774 -0.2038 -0.4343
vn -0.3837 0.9235 0.0027
vn -0.3443 0.8960 -0.2804
vn -0.7333 0.4937 -0.4674
vn -0.8279 0.5595 0.0390
vn -0.7529 0.4652 -0.4655
vn -0.7413 0.6280 -0.2368
vn -0.5051 -0.0595 0.8610
vn -0.2100 0.7648 0.6091
vn -0.3110 0.4854 0.8171
vn -0.5286 -0.2091 0.8227
vn -0.4483 0.0540 0.8922
vn -0.8232 -0.4267 -0.3745
vn -0.9153 -0.3800 -0.1336
vn -0.0687 -0.2467 -0.9666
vn 0.3507 -0.0251 -0.9361
vn -0.0495 0.0808 0.9955
vn -0.0649 -0.4259 0.9024
vn 0.0287 0.3373 0.9410
vn 0.0924 0.4409 0.8928
vn -0.0610 0.0913 0.9939
vn 0.3908 -0.0574 -0.9187
vn 0.3743 -0.4672 -0.8010
vn 0.4444 0.0206 -0.8956
vn 0.5371 0.1227 -0.8346
vn 0.4870 0.8606 0.1491
vn 0.5805 -0.6972 0.4207
vn 0.5435 -0.4543 -0.7058
vn 0.4759 0.8731 0.1058
vn 0.1208 -0.7724 -0.6236
vn 0.8744 -0.0524 0.4825
vn 0.2749 -0.3272 0.9041
vn 0.5845 -0.6267 -0.5154
vn 0.0559 -0.2324 -0.9710
vn 0.7584 -0.6431 0.1063
vn -0.8748 0.0385 -0.4829
vn -0.4042 -0.4207 0.8122
vn -0.8800 -0.0225 -0.4744
vn -0.3735 -0.6545 0.6573
vn -0.6095 -0.7782 0.1514
vn 0.9749 -0.2224 -0.0044
vn -0.4454 -0.8306 -0.3343
vn -0.4314 0.1003 0.8966
vn -0.8468 0.1589 -0.5076
vn 0.8120 -0.5343 0.2351
vn 0.0879 -0.1337 -0.9871
vn 0.4715 -0.3495 -0.8097
vn 0.8007 -0.4185 0.4288
vn -0.9415 0.1589 -0.2973
vn -0.0140 -0.0653 0.9978
vn -0.0998 0.6471 0.7558
vn -0.8435 0.4324 -0.3185
vn 0.9459 -0.0570 0.3193
vn 0.3485 0.1842 -0.9190
vn 0.1686 0.1899 -0.9672
vn 0.8694 -0.0361 0.4928
vn -0.7811 0.3737 -0.5002
vn -0.1804 0.5887 0.7879
vn 0.9865 0.1262 0.1042
vn -0.9778 -0.0869 -0.1906
vn -0.4464 0.0953 0.8897
vn 0.4093 -0.1930 -0.8918
vn 0.0522 0.2149 0.9753
vn 0.8409 0.2536 0.4781
vn -0.0014 -0.2147 -0.9767
vn -0.7815 -0.4022 -0.4770
vn 0.9990 0.0010 0.0446
vn -0.9039 -0.4246 0.0525
vn -0.4896 -0.3877 0.7810
vn 0.5054 -0.3624 -0.7831
vn 0.1848 -0.1679 0.9683
vn 0.8674 0.0904 0.4893
vn -0.0352 -0.4144 -0.9094
vn -0.3348 -0.5863 0.7377
vn 0.3558 -0.5711 0.7398
vn -0.8418 -0.5051 -0.1903
vn 0.1669 -0.5828 -0.7953
vn 0.6582 -0.4046 -0.6349
vn 0.9597 -0.2285 0.1636
vn 0.8960 -0.3554 0.2662
vn 0.3354 -0.8590 0.3867
vn 0.6425 -0.7204 0.2611
vn 0.6978 0.7103 -0.0919
vn 0.5938 0.7375 0.3217
vn 0.9180 -0.1957 0.3450
vn 0.8243 -0.4779 0.3036
vn 0.7760 -0.3469 0.5268
vn -0.9164 0.2846 -0.2813
vn 0.4990 0.8538 0.1485
vn 0.6773 0.3684 0.6369
vn 0.8414 0.4481 -0.3020
vn 0.4100 0.2083 -0.8880
vn -0.0649 0.6040 -0.7944
vn -0.0808 0.2233 -0.9714
vn 0.4195 -0.0219 -0.9075
vn 0.3276 -0.0070 0.9448
vn -0.1971 0.3969 0.8964
vn -0.2756 0.7621 0.5859
vn 0.1806 0.3330 0.9255
vn 0.0934 -0.3043 -0.9480
vn 0.4471 -0.1763 -0.8769
vn -0.1247 -0.9888 0.0821
vn 0.4722 -0.6064 0.6397
vn 0.2138 0.8381 0.5019
vn 0.3343 0.8112 -0.4799
vn 0.3994 -0.1588 0.9029
vn 0.1725 -0.2470 0.9535
vn 0.2375 -0.5611 -0.7929
vn 0.5251 -0.3032 -0.7952
vn -0.0199 0.9998 0.0045
vn 0.6395 0.7297 0.2420
vn -0.1726 0.9837 -0.0514
vn 0.7389 -0.0879 -0.6681
vn 0.5626 -0.0225 0.8264
vn -0.4859 0.8579 -0.1672
vn 0.7218 -0.0239 -0.6917
vn 0.5632 -0.0428 0.8252
vn 0.5697 -0.0574 0.8198
vn 0.7246 -0.0632 -0.6862
vn 0.3338 0.1981 0.9216
vn 0.3851 0.2257 0.8948
vn 0.7596 0.4240 0.4931
vn 0.7548 0.4215 0.5026
vn -0.9534 -0.2574 -0.1572
vn -0.9541 -0.2577 -0.1529
vn -0.9618 -0.2179 0.1656
vn -0.9658 -0.2317 0.1163
vn 0.8697 0.4738 -0.1386
vn 0.8711 0.4748 -0.1259
vn 0.7759 0.4169 -0.4734
vn 0.7613 0.4084 -0.5037
vn 0.8644 0.4759 0.1626
vn 0.8649 0.4761 0.1589
vn 0.3859 0.1963 -0.9014
vn 0.3151 0.1569 -0.9360
vn -0.3859 -0.1963 0.9014
vn -0.3151 -0.1569 0.9360
vn 0.2403 0.2775 -0.9302
vn 0.2418 0.2779 -0.9297
vn -0.2976 -0.0148 -0.9546
vn -0.3638 -0.0741 -0.9285
vn -0.5264 0.1075 -0.8434
vn -0.4291 0.1757 -0.8860
vn -0.8429 -0.1587 -0.5141
vn -0.8645 -0.1785 -0.4698
vn 0.7193 0.3957 0.5709
vn 0.6578 0.4086 0.6327
vn 0.9180 0.3278 0.2231
vn 0.9302 0.3206 0.1787
vn 0.7073 0.6970 -0.1180
vn 0.7083 0.6976 -0.1078
vn 0.6005 0.6692 -0.4376
vn 0.6012 0.6694 -0.4363
vn -0.7368 -0.6443 -0.2048
vn -0.7365 -0.6434 -0.2088
vn -0.7675 -0.6059 0.2094
vn -0.7637 -0.6288 0.1462
vn -0.5444 0.2663 0.7954
vn -0.4247 0.3509 0.8346
vn 0.1340 0.6278 0.7668
vn 0.1431 0.6309 0.7626
vn 0.6901 0.7100 0.1402
vn 0.6825 0.7112 0.1687
vn -0.6964 -0.2890 0.6569
vn -0.7347 -0.3919 0.5538
vn -0.6680 -0.4659 -0.5802
vn -0.6469 -0.4195 -0.6369
vn 0.9319 0.3076 -0.1922
vn 0.9320 0.3076 -0.1919
vn 0.7108 0.3476 -0.6115
vn 0.7332 0.3452 -0.5859
vn -0.3343 0.1359 0.9326
vn -0.4166 0.0658 0.9067
vn 0.1737 0.3788 0.9090
vn 0.2063 0.3859 0.8992
vn 0.5562 0.7151 0.4235
vn 0.5256 0.7127 0.4645
vn -0.3338 -0.1981 -0.9216
vn -0.3851 -0.2257 -0.8948
vn -0.7548 -0.4215 -0.5026
vn -0.7596 -0.4240 -0.4931
vn -0.7759 -0.4169 0.4734
vn -0.7613 -0.4084 0.5037
vn 0.3328 -0.9424 -0.0320
vn 0.4736 -0.4468 0.7590
vn 0.5784 -0.3741 0.7249
vn 0.9077 -0.0522 0.4163
vn 0.8671 -0.1017 0.4877
vn -0.8952 -0.0897 0.4364
vn -0.8470 -0.0254 0.5309
vn 0.1695 0.5150 -0.8403
vn 0.2095 0.5331 -0.8197
vn 0.9858 0.0650 0.1549
vn 0.9888 0.0699 0.1320
vn 0.9896 0.0719 -0.1249
vn 0.9853 0.0651 -0.1581
vn -0.0925 -0.6742 -0.7327
vn -0.1177 -0.6818 -0.7220
vn -0.5186 -0.7501 -0.4104
vn -0.4868 -0.7477 -0.4517
vn -0.6389 -0.7524 -0.1603
vn -0.6426 -0.7526 -0.1435
vn -0.6425 -0.7603 0.0955
vn -0.6390 -0.7611 0.1115
vn -0.0713 -0.7046 0.7060
vn -0.0836 -0.7084 0.7009
vn 0.9039 -0.0491 -0.4249
vn 0.8559 -0.1029 -0.5068
vn 0.5462 -0.3697 -0.7516
vn 0.4435 -0.4352 -0.7835
vn -0.5121 -0.7737 0.3731
vn -0.4813 -0.7731 0.4130
vn -0.8711 -0.4748 0.1259
vn -0.8697 -0.4738 0.1386
vn -0.8649 -0.4761 -0.1589
vn -0.8644 -0.4759 -0.1626
usemtl Material.010
s 1
f 1/1/1 2/2/1 3/3/1 4/4/1
f 5/5/2 6/6/2 7/7/2 8/8/2
f 9/9/3 10/10/3 11/11/3 12/12/3
f 4/4/4 3/3/4 13/13/4 14/14/4
f 15/15/5 16/16/5 2/2/5 1/1/5
f 17/17/6 18/18/6 16/16/6 15/15/6
f 19/19/7 20/20/7 21/21/7 22/22/7
f 23/23/8 24/24/8 18/18/8 17/17/8
f 25/25/9 26/26/9 27/27/9 28/28/9
f 24/24/10 25/25/10 28/28/10 18/18/10
f 29/29/11 30/30/11 13/13/11 3/3/11
f 16/16/12 29/29/12 3/3/12 2/2/12
f 18/18/13 28/28/13 29/29/13 16/16/13
f 28/28/14 27/27/14 30/30/14 29/29/14
f 20/20/15 31/31/15 32/32/15 21/21/15
f 31/31/16 33/33/16 34/34/16 32/32/16
f 35/35/17 26/26/17 34/34/17 36/36/17
f 14/14/18 13/13/18 30/30/18 37/37/18
f 37/37/19 30/30/19 27/27/19 38/38/19
f 36/36/20 34/34/20 33/33/20 39/39/20
f 38/38/21 27/27/21 26/26/21 35/35/21
f 21/21/22 32/32/22 25/25/22 24/24/22
f 32/32/23 34/34/23 26/26/23 25/25/23
f 22/22/24 21/21/24 24/24/24 23/23/24
f 40/40/25 22/22/25 23/23/25 41/41/25
f 42/42/26 38/38/26 35/35/26 43/43/26
f 44/44/27 36/36/27 39/39/27 45/45/27
f 46/46/28 37/37/28 38/38/28 42/42/28
f 47/47/29 14/14/29 37/37/29 46/46/29
f 43/43/30 35/35/30 36/36/30 44/44/30
f 41/41/31 23/23/31 17/17/31 48/48/31
f 49/49/32 19/19/32 22/22/32 40/40/32
f 48/48/33 17/17/33 15/15/33 50/50/33
f 50/50/34 15/15/34 1/1/34 51/51/34
f 52/52/35 4/4/35 14/14/35 47/47/35
f 8/8/36 7/7/36 53/53/36 54/54/36
f 55/55/37 56/56/37 57/57/37 58/58/37
f 51/51/38 1/1/38 4/4/38 52/52/38
f 59/59/39 60/60/39 61/61/39 62/62/39
f 63/63/40 64/64/40 65/65/40 66/66/40
f 67/67/41 68/68/41 64/64/41 63/63/41
f 69/69/42 70/70/42 60/60/42 59/59/42
f 58/58/43 57/57/43 71/71/43 72/72/43
f 54/54/44 53/53/44 56/56/44 55/55/44
f 72/72/45 71/71/45 10/10/45 9/9/45
f 12/12/46 11/11/46 6/6/46 5/5/46
f 71/71/47 73/73/47 74/74/47 10/10/47
f 75/75/48 76/76/48 68/68/48 67/67/48
f 77/77/49 78/78/49 76/76/49 75/75/49
f 66/66/50 65/65/50 70/70/50 69/69/50
f 62/62/51 61/61/51 78/78/51 77/77/51
f 79/79/52 12/12/52 5/5/52 80/80/52
f 81/81/53 72/72/53 9/9/53 82/82/53
f 83/83/54 54/54/54 55/55/54 84/84/54
f 85/85/55 58/58/55 72/72/55 81/81/55
f 84/84/56 55/55/56 58/58/56 85/85/56
f 86/86/57 8/8/57 54/54/57 83/83/57
f 82/82/58 9/9/58 12/12/58 79/79/58
f 80/80/59 5/5/59 8/8/59 86/86/59
f 39/39/60 80/80/60 86/86/60 45/45/60
f 31/31/61 82/82/61 79/79/61 33/33/61
f 45/45/62 86/86/62 83/83/62 87/87/62
f 49/49/63 84/84/63 85/85/63 19/19/63
f 19/19/64 85/85/64 81/81/64 20/20/64
f 87/87/65 83/83/65 84/84/65 49/49/65
f 20/20/66 81/81/66 82/82/66 31/31/66
f 33/33/67 79/79/67 80/80/67 39/39/67
f 53/53/68 88/88/68 89/89/68 56/56/68
f 10/10/69 74/74/69 90/90/69 11/11/69
f 11/11/70 90/90/70 91/91/70 6/6/70
f 56/56/71 89/89/71 92/92/71 57/57/71
f 6/6/72 91/91/72 93/93/72 7/7/72
f 7/7/73 93/93/73 88/88/73 53/53/73
f 57/57/74 92/92/74 73/73/74 71/71/74
f 73/73/75 62/62/75 77/77/75 74/74/75
f 88/88/76 66/66/76 69/69/76 89/89/76
f 74/74/77 77/77/77 75/75/77 90/90/77
f 90/90/78 75/75/78 67/67/78 91/91/78
f 89/89/79 69/69/79 59/59/79 92/92/79
f 91/91/80 67/67/80 63/63/80 93/93/80
f 93/93/81 63/63/81 66/66/81 88/88/81
f 92/92/82 59/59/82 62/62/82 73/73/82
f 76/76/83 94/94/83 95/95/83 68/68/83
f 68/68/84 95/95/84 96/96/84 64/64/84
f 61/61/85 97/97/85 98/98/85 99/99/85 100/100/85 94/94/85 76/76/85 78/78/85
f 60/60/86 101/101/86 97/97/86 61/61/86
f 70/70/87 102/102/87 101/101/87 60/60/87
f 65/65/88 64/64/88 96/96/88 103/103/88 104/104/88 105/105/88 102/102/88 70/70/88
f 106/106/89 107/107/90 108/108/91 109/109/89 110/110/89 111/111/89 112/112/89 113/113/92 114/114/93 115/115/89 116/116/89
f 45/45/94 87/87/94 49/49/94 40/40/94 117/117/95 44/44/96
f 40/40/97 87/118/97 117/117/97
f 52/52/98 47/47/99 51/51/100
f 118/119/101 112/112/102 111/111/103 119/120/104
f 120/121/105 116/116/106 115/115/107 121/122/108
f 119/120/104 111/111/103 110/110/109 122/123/110
f 123/124/111 108/108/91 107/107/90 124/125/112
f 121/122/108 115/115/107 114/114/93 125/126/113
f 125/126/113 114/114/93 113/113/92 126/127/114
f 127/128/115 106/106/116 116/116/106 120/121/105
f 122/123/110 110/110/109 109/109/117 128/129/118
f 123/124/119 108/108/120 109/109/120 128/129/121
f 124/125/112 107/107/90 106/106/116 127/128/115
f 126/127/114 113/113/92 112/112/102 118/119/101
f 51/51/100 126/127/114 118/119/101 50/50/122
f 44/44/96 124/125/112 127/128/115 43/43/123
f 117/117/124 123/124/119 128/129/121 40/40/124
f 41/41/125 122/123/110 128/129/118 40/40/125
f 43/43/123 127/128/115 120/121/105 42/42/126
f 47/47/99 125/126/113 126/127/114 51/51/100
f 46/46/127 121/122/108 125/126/113 47/47/99
f 117/117/95 123/124/111 124/125/112 44/44/96
f 48/48/128 119/120/104 122/123/110 41/41/125
f 42/42/126 120/121/105 121/122/108 46/46/127
f 50/50/122 118/119/101 119/120/104 48/48/128
usemtl Material.011
f 129/130/129 130/131/130 131/132/131 132/133/132
f 133/134/133 134/135/134 135/136/135 136/137/136
f 137/138/137 138/139/138 139/140/139 140/141/140
f 132/142/132 131/143/131 141/144/141 142/145/142
f 140/146/140 139/147/139 143/148/143 144/149/144
f 145/150/145 146/151/146 130/131/130 129/130/129
f 101/152/147 147/153/148 148/154/149 97/155/150
f 148/156/151 149/157/152 150/158/153 151/159/154
f 103/160/155 152/161/156 153/162/157 104/163/158
f 154/164/159 137/138/160 140/141/161 155/165/162
f 99/166/163 133/134/164 136/137/165 100/167/166
f 156/168/167 145/150/168 129/130/169 157/169/170
f 153/162/171 142/145/172 137/138/160 154/164/159
f 100/167/166 136/137/165 158/170/173 94/171/174
f 98/172/175 151/159/176 133/134/164 99/166/163
f 105/173/177 154/164/178 155/165/179 102/174/180
f 94/175/174 158/176/173 156/168/181 95/177/182
f 95/177/182 156/168/181 157/169/183 96/178/184
f 104/163/158 153/162/157 154/164/178 105/173/177
f 102/179/180 155/180/179 147/153/148 101/152/147
f 96/178/184 157/169/183 152/181/156 103/182/155
f 97/155/150 148/154/149 151/183/176 98/184/175
f 152/185/185 132/186/186 142/187/172 153/188/171
f 157/189/170 129/190/169 132/186/186 152/185/185
f 144/149/144 143/148/143 159/191/187 149/192/188
f 149/192/188 159/191/187 160/193/189 150/194/190
f 161/195/191 162/196/192 146/151/146 145/150/145
f 163/197/193 164/198/193 165/199/193 166/200/193 167/201/193 168/202/193 169/203/193 170/204/193 171/205/193 172/206/193 173/207/193 174/208/193
f 142/145/142 141/144/141 138/139/138 137/138/137
f 130/209/194 174/210/195 173/211/196 131/143/197
f 158/170/198 161/212/199 145/213/168 156/214/167
f 147/153/200 144/149/201 149/192/152 148/154/151
f 141/144/202 172/215/203 171/216/204 138/139/205
f 159/217/206 168/202/207 167/201/208 160/218/209
f 175/219/210 166/200/211 165/199/212 176/220/213
f 146/151/214 163/221/215 174/222/195 130/131/194
f 138/139/205 171/216/204 170/223/216 139/140/217
f 139/140/217 170/223/216 169/224/218 143/225/219
f 143/148/219 169/226/218 168/227/207 159/191/206
f 131/143/197 173/211/196 172/215/203 141/144/202
f 176/220/213 165/199/212 164/198/220 162/228/221
f 162/228/221 164/198/220 163/197/215 146/229/214
f 136/137/136 135/136/135 161/212/199 158/170/198
f 151/159/154 150/158/153 134/135/134 133/134/133
f 135/136/222 176/230/223 162/231/192 161/212/191
f 150/158/190 160/232/189 175/233/224 134/135/225
f 134/135/225 175/233/224 176/230/223 135/136/222
f 160/218/209 167/201/208 166/200/211 175/219/210
f 155/234/162 140/235/161 144/236/201 147/237/200
