# Blender v2.80 (sub 75) OBJ File: ''
# www.blender.org
mtllib brazo.mtl
o Cylinder.002
v -0.029865 0.137713 -0.146534
v 0.040065 0.163714 -0.027087
v 0.109627 0.150450 -0.055114
v 0.068428 0.134173 -0.162088
v 0.350383 -0.500078 0.226609
v 0.226429 -0.458358 0.226913
v 0.285948 -0.542079 0.149013
v 0.372307 -0.589460 0.162053
v 0.406497 -0.537050 -0.026158
v 0.461937 -0.484216 0.171963
v 0.454606 -0.596163 0.124977
v 0.406957 -0.654743 -0.023377
v 0.050490 0.143564 0.124975
v 0.139986 0.144883 0.081070
v 0.042160 0.072517 -0.194402
v 0.159689 0.084319 -0.204959
v 0.091573 -0.030421 -0.219939
v 0.209556 -0.003308 -0.227829
v 0.102408 -0.275610 -0.160181
v 0.075924 -0.183639 -0.201706
v 0.174112 -0.176290 -0.191070
v 0.215793 -0.237155 -0.174311
v 0.093211 -0.117909 -0.211724
v 0.209154 -0.109713 -0.211100
v 0.275036 -0.108937 -0.045952
v 0.317103 0.001670 -0.045281
v 0.315953 -0.006863 0.151070
v 0.312276 -0.097953 0.156070
v 0.254895 0.097526 -0.050198
v 0.247912 0.092468 0.121070
v 0.252969 -0.169543 -0.046623
v 0.310215 -0.253357 -0.047965
v 0.288598 -0.149043 0.161070
v 0.344317 -0.217918 0.111070
v 0.212797 -0.102930 0.208719
v 0.205340 -0.163052 0.214302
v 0.140803 0.074118 0.169639
v 0.209328 -0.020958 0.203136
v 0.246733 -0.265101 0.158473
v -0.009016 -0.165835 -0.172140
v -0.012272 -0.114353 -0.170520
v 0.089032 -0.042872 0.210000
v 0.098637 -0.099353 0.215000
v 0.108242 -0.155835 0.220000
v 0.127451 -0.268798 0.170000
v 0.034053 0.028691 0.180000
v -0.020926 0.100253 0.140000
v -0.015528 -0.062872 -0.168899
v -0.002504 -0.268798 -0.115381
v -0.054404 0.033691 -0.146029
v -0.093281 0.100253 -0.103159
v -0.010126 0.130253 0.003815
v 0.130851 -0.477681 0.041730
v 0.194509 -0.562740 0.009877
v 0.077091 -0.449549 -0.142992
v 0.179713 -0.502558 -0.184713
v 0.244065 -0.619467 -0.162191
v 0.175456 -0.560955 -0.143845
v 0.239180 -0.825288 -0.096813
v 0.313032 -0.837062 -0.089511
v 0.266153 -0.897638 -0.012429
v 0.223917 -0.878519 -0.020898
v 0.225042 -0.796612 0.142174
v 0.172081 -0.800137 0.048707
v 0.188898 -0.870794 0.068613
v 0.207441 -0.881847 0.103915
v 0.301344 -0.821829 0.154192
v 0.241652 -0.897333 0.110775
v 0.173268 -0.799773 -0.059203
v 0.187079 -0.865126 0.010709
v 0.305423 -0.497953 -0.194811
v 0.335205 -0.631386 -0.162831
v 0.416687 -0.733700 -0.006846
v 0.342776 -0.723541 -0.139169
v 0.366096 -0.826946 0.110145
v 0.271491 -0.908181 0.085174
v 0.363978 -0.851617 0.003567
v 0.279479 -0.908036 0.042108
v 0.433756 -0.335229 0.168053
v 0.311277 -0.369051 0.231563
v 0.267139 -0.379141 -0.209218
v 0.381853 -0.399937 -0.036603
v 0.091289 -0.390091 0.041193
v 0.004884 -0.366846 -0.141490
v 0.126988 -0.404203 -0.191621
v 0.168424 -0.347271 0.239160
v 0.088479 -0.298798 0.010965
v 0.165108 -0.693745 -0.109879
v 0.177771 -0.694248 0.039457
v 0.436434 -0.680536 0.139635
v 0.354436 -0.690222 0.185316
v 0.249593 -0.727787 -0.141762
v 0.256002 -0.665647 0.172612
v 0.240011 -0.917327 0.092191
v 0.259089 -0.926130 0.079972
v 0.218169 -0.906663 0.092278
v 0.270292 -0.930713 0.058894
v 0.270618 -0.929848 0.034605
v 0.259980 -0.923767 0.013614
v 0.241227 -0.914100 0.001545
v 0.219385 -0.903436 0.001632
v 0.200307 -0.894633 0.013851
v 0.189104 -0.890050 0.034929
v 0.188778 -0.890915 0.059217
v 0.199417 -0.896996 0.080208
v -0.058956 -0.078332 0.153301
v -0.087553 0.002545 0.165020
v -0.125499 0.072144 0.130205
v -0.160748 0.108369 0.059910
v -0.182108 0.099719 -0.023547
v -0.182797 0.048939 -0.093669
v -0.162596 -0.027847 -0.128193
v -0.127920 -0.106261 -0.116157
v -0.089777 -0.161407 -0.061384
v -0.060278 -0.175777 0.018738
v -0.048788 -0.144808 0.098769
v 0.049613 -0.160835 0.023930
v -0.091965 0.018410 -0.102476
v -0.063468 -0.052374 -0.119241
v 0.013178 -0.037713 0.158504
v -0.027124 0.014744 0.136513
v -0.061081 -0.090111 -0.120429
v -0.015718 -0.124184 0.022109
v 0.027259 -0.120519 0.165834
v -0.067425 0.067202 0.107192
v -0.120463 0.067202 -0.071051
v 0.020218 -0.079116 0.162169
v -0.058694 -0.127849 -0.121616
v 0.154536 -1.018770 0.152296
v 0.132674 -1.010178 0.126601
v 0.092142 -1.084219 0.127831
v 0.114003 -1.092812 0.153526
v 0.231692 -0.972303 0.035732
v 0.231683 -0.973405 0.068309
v 0.214300 -1.037588 0.084826
v 0.214313 -1.035883 0.034436
v 0.120075 -1.002528 0.032283
v 0.132712 -1.005520 -0.011067
v 0.092180 -1.079562 -0.009838
v 0.079542 -1.076569 0.033513
v 0.120061 -1.004233 0.082674
v 0.079528 -1.078274 0.083904
v 0.154587 -1.012408 -0.035763
v 0.114055 -1.086449 -0.034533
v 0.179787 -1.027708 0.152873
v 0.139254 -1.101749 0.154103
v 0.209405 -0.962905 -0.009278
v 0.193080 -0.957127 -0.009651
v 0.223538 -0.968460 0.007333
v 0.201700 -1.029938 -0.009492
v 0.179839 -1.021346 -0.035186
v 0.170759 -0.951841 0.066917
v 0.178914 -0.955685 0.095316
v 0.170768 -0.950739 0.034341
v 0.178938 -0.952674 0.006315
v 0.209371 -0.967018 0.112300
v 0.193047 -0.961240 0.111927
v 0.223513 -0.971471 0.096335
v 0.139306 -1.095387 -0.033956
v 0.161167 -1.103980 -0.008262
v 0.201662 -1.034596 0.128177
v 0.161129 -1.108637 0.129407
v 0.094822 -1.165506 0.094961
v 0.085119 -1.162072 0.094740
v 0.076719 -1.158770 0.084867
v 0.071872 -1.156485 0.067987
v 0.071878 -1.155830 0.048624
v 0.076734 -1.156980 0.031967
v 0.085139 -1.159627 0.022477
v 0.094842 -1.163061 0.022699
v 0.103242 -1.166363 0.032572
v 0.108089 -1.168647 0.049452
v 0.108084 -1.169302 0.068814
v 0.103228 -1.168153 0.085472
v 0.173781 -1.109925 0.035666
v 0.173767 -1.111630 0.086056
vt 0.875000 0.924610
vt 0.812500 0.924610
vt 0.812500 0.924610
vt 0.875000 0.924610
vt 0.750000 0.765700
vt 0.750000 0.765700
vt 0.750000 0.765700
vt 0.750000 0.765700
vt 0.812500 0.765700
vt 0.750000 0.765700
vt 0.750000 0.765700
vt 0.812500 0.765700
vt 0.750000 0.924610
vt 0.750000 0.924610
vt 0.875000 0.888726
vt 0.875000 0.888726
vt 0.875000 0.852842
vt 0.875000 0.852842
vt 0.875000 0.765700
vt 0.875000 0.809271
vt 0.875000 0.809271
vt 0.875000 0.765700
vt 0.871942 0.831056
vt 0.868750 0.831056
vt 0.812500 0.831056
vt 0.812500 0.852842
vt 0.750000 0.852842
vt 0.750000 0.831056
vt 0.812500 0.888726
vt 0.750000 0.888726
vt 0.812500 0.809271
vt 0.812500 0.765700
vt 0.750000 0.809271
vt 0.750000 0.765700
vt 0.750000 0.831056
vt 0.750000 0.809271
vt 0.750000 0.888726
vt 0.750000 0.852842
vt 0.750000 0.765700
vt 0.875000 0.809271
vt 0.875000 0.831056
vt 0.750000 0.852842
vt 0.750000 0.831056
vt 0.750000 0.809271
vt 0.750000 0.765700
vt 0.750000 0.888726
vt 0.750000 0.924610
vt 0.875000 0.852842
vt 0.875000 0.765700
vt 0.875000 0.888726
vt 0.875000 0.924610
vt 0.812500 0.924610
vt 0.812500 0.765700
vt 0.812500 0.765700
vt 0.875000 0.765700
vt 0.875000 0.765700
vt 0.875000 0.765700
vt 0.875000 0.765700
vt 0.875000 0.765700
vt 0.875000 0.765700
vt 0.875000 0.765700
vt 0.875000 0.765700
vt 0.750000 0.765700
vt 0.812500 0.765700
vt 0.812500 0.765700
vt 0.750000 0.765700
vt 0.750000 0.765700
vt 0.750000 0.765700
vt 0.875000 0.765700
vt 0.875000 0.765700
vt 0.875000 0.765700
vt 0.875000 0.765700
vt 0.812500 0.765700
vt 0.875000 0.765700
vt 0.750000 0.765700
vt 0.750000 0.765700
vt 0.812500 0.765700
vt 0.812500 0.765700
vt 0.750000 0.765700
vt 0.750000 0.765700
vt 0.875000 0.765700
vt 0.812500 0.765700
vt 0.812500 0.765700
vt 0.875000 0.765700
vt 0.875000 0.765700
vt 0.750000 0.765700
vt 0.812500 0.765700
vt 0.875000 0.765700
vt 0.812500 0.765700
vt 0.750000 0.765700
vt 0.750000 0.765700
vt 0.875000 0.765700
vt 0.750000 0.765700
vt 0.750000 0.765700
vt 0.750000 0.765700
vt 0.750000 0.765700
vt 0.781250 0.765700
vt 0.812500 0.765700
vt 0.843750 0.765700
vt 0.875000 0.765700
vt 0.875000 0.765700
vt 0.875000 0.765700
vt 0.843750 0.765700
vt 0.812500 0.765700
vt 0.781250 0.765700
vt 0.750000 0.831056
vt 0.750000 0.852842
vt 0.750000 0.888726
vt 0.750000 0.924610
vt 0.875000 0.924610
vt 0.875000 0.888726
vt 0.875000 0.852842
vt 0.875000 0.831056
vt 0.875000 0.809271
vt 0.812500 0.809271
vt 0.750000 0.809271
vt 0.812500 0.809271
vt 0.000000 0.000000
vt 0.875000 0.888726
vt 0.875000 0.852842
vt 0.750000 0.852842
vt 0.750000 0.888726
vt 0.875000 0.831056
vt 0.812694 0.809271
vt 0.750000 0.809271
vt 0.750000 0.924610
vt 0.875000 0.924610
vt 0.750000 0.831056
vt 0.875000 0.809271
vt 0.472476 0.543502
vt 0.394192 0.574272
vt 0.249045 0.309130
vt 0.327330 0.278360
vt 0.709901 0.428555
vt 0.705955 0.545212
vt 0.476116 0.604361
vt 0.482221 0.423914
vt 0.601668 0.416206
vt 0.590951 0.260966
vt 0.325809 0.265371
vt 0.336525 0.420610
vt 0.574272 0.753958
vt 0.595562 0.596653
vt 0.330420 0.601058
vt 0.309130 0.758362
vt 0.394327 0.590951
vt 0.472662 0.566286
vt 0.327515 0.301144
vt 0.249181 0.325809
vt 0.562901 0.511497
vt 0.417754 0.246355
vt 0.704702 0.956514
vt 0.782918 0.918327
vt 0.668962 0.743557
vt 0.610504 0.764248
vt 0.743557 0.267374
vt 0.723665 0.326859
vt 0.503511 0.266609
vt 0.534281 0.174597
vt 0.979576 0.587824
vt 1.001352 0.512655
vt 0.783175 0.540229
vt 0.769412 0.641925
vt 0.787122 0.423572
vt 0.780194 0.323211
vt 0.861932 0.424520
vt 0.858835 0.511497
vt 0.668842 0.728828
vt 0.610384 0.749519
vt 0.875247 0.586976
vt 0.712882 0.645573
vt 0.883708 0.349351
vt 1.004448 0.425678
vt 0.988037 0.350199
vt 0.846882 0.875247
vt 0.778563 0.906770
vt 0.719485 0.712882
vt 0.700348 0.944957
vt 0.636383 0.988037
vt 0.559861 0.780194
vt 0.633195 0.979576
vt 0.559773 0.769412
vt 0.850070 0.883708
vt 0.719572 0.723665
vt 0.559773 0.641925
vt 0.530572 0.540229
vt 0.349023 0.596653
vt 0.394192 0.753958
vt 0.610384 0.701410
vt 0.472476 0.845970
vt 0.563086 0.534281
vt 0.417939 0.269139
vt 0.641371 0.503511
vt 0.496225 0.238369
vt 0.641235 0.486832
vt 0.496089 0.221690
vt 0.258643 0.640655
vt 0.223897 0.639861
vt 0.193816 0.604505
vt 0.176459 0.544060
vt 0.176478 0.474723
vt 0.193868 0.415071
vt 0.223968 0.381090
vt 0.258714 0.381883
vt 0.288795 0.417240
vt 0.306152 0.477685
vt 0.306133 0.547022
vt 0.288743 0.606674
vt 0.278360 0.850375
vt 0.042165 0.604505
vt 0.030342 0.639861
vt 0.728828 0.702745
vt 0.511497 0.848036
vt 0.486832 0.759601
vt 0.052692 0.474723
vt 0.050346 0.544060
vt 0.417939 0.179001
vt 0.496225 0.271014
vt 0.541394 0.428318
vt 0.541344 0.608766
vt 0.223897 0.030342
vt 0.258643 0.018044
vt 0.048574 0.415071
vt 0.301144 0.176936
vt 0.039097 0.381090
vt 0.258714 0.026798
vt 0.223968 0.039097
vt 0.496089 0.764005
vt 0.417754 0.852440
vt 0.221690 0.764005
vt 0.210974 0.608766
vt 0.217079 0.428318
vt 0.238369 0.271014
vt 0.559861 0.323211
vt 0.610504 0.266039
vt 0.472662 0.172531
vt 0.394327 0.260966
vn 0.0448 0.9778 -0.2046
vn -0.3304 -0.6876 0.6466
vn 0.9556 0.0279 -0.2933
vn 0.1076 0.9915 0.0732
vn -0.1228 0.5012 -0.8565
vn -0.1081 0.1915 -0.9755
vn 0.0567 -0.3336 -0.9410
vn -0.0115 -0.1277 -0.9918
vn 0.9712 -0.2221 -0.0866
vn 0.8774 -0.2038 -0.4343
vn 0.3837 0.9235 0.0027
vn 0.3443 0.8960 -0.2804
vn 0.7333 0.4937 -0.4674
vn 0.8279 0.5595 0.0390
vn 0.7529 0.4652 -0.4655
vn 0.7413 0.6280 -0.2368
vn 0.5051 -0.0595 0.8610
vn 0.2100 0.7648 0.6091
vn 0.3110 0.4854 0.8171
vn 0.5286 -0.2091 0.8227
vn 0.4483 0.0540 0.8922
vn 0.8232 -0.4267 -0.3745
vn 0.9153 -0.3800 -0.1336
vn 0.0687 -0.2467 -0.9666
vn -0.3507 -0.0251 -0.9361
vn 0.0495 0.0808 0.9955
vn 0.0649 -0.4259 0.9024
vn -0.0287 0.3373 0.9410
vn -0.0924 0.4409 0.8928
vn 0.0610 0.0913 0.9939
vn -0.3908 -0.0574 -0.9187
vn -0.3743 -0.4672 -0.8010
vn -0.4444 0.0206 -0.8956
vn -0.5371 0.1227 -0.8346
vn -0.4870 0.8606 0.1491
vn -0.5805 -0.6972 0.4207
vn -0.5435 -0.4543 -0.7058
vn -0.4759 0.8731 0.1058
vn -0.1208 -0.7724 -0.6236
vn -0.8744 -0.0524 0.4825
vn -0.2749 -0.3272 0.9041
vn -0.5845 -0.6267 -0.5154
vn -0.0559 -0.2324 -0.9710
vn -0.7584 -0.6431 0.1063
vn 0.8748 0.0385 -0.4829
vn 0.4042 -0.4207 0.8122
vn 0.8800 -0.0225 -0.4744
vn 0.3735 -0.6545 0.6573
vn 0.6095 -0.7782 0.1514
vn -0.9749 -0.2224 -0.0044
vn 0.4454 -0.8306 -0.3343
vn 0.4314 0.1003 0.8966
vn 0.8468 0.1589 -0.5076
vn -0.8120 -0.5343 0.2351
vn -0.0879 -0.1337 -0.9871
vn -0.4715 -0.3495 -0.8097
vn -0.8007 -0.4185 0.4288
vn 0.9415 0.1589 -0.2973
vn 0.0140 -0.0653 0.9978
vn 0.0998 0.6471 0.7558
vn 0.8435 0.4324 -0.3185
vn -0.9459 -0.0570 0.3193
vn -0.3485 0.1842 -0.9190
vn -0.1686 0.1899 -0.9672
vn -0.8694 -0.0361 0.4928
vn 0.7811 0.3737 -0.5002
vn 0.1804 0.5887 0.7879
vn -0.9865 0.1262 0.1042
vn 0.9778 -0.0869 -0.1906
vn 0.4464 0.0953 0.8897
vn -0.4093 -0.1930 -0.8918
vn -0.0522 0.2149 0.9752
vn -0.8409 0.2536 0.4781
vn 0.0014 -0.2147 -0.9767
vn 0.7815 -0.4022 -0.4770
vn -0.9990 0.0010 0.0446
vn 0.9039 -0.4246 0.0525
vn 0.4896 -0.3877 0.7810
vn -0.5054 -0.3624 -0.7831
vn -0.1848 -0.1679 0.9683
vn -0.8674 0.0904 0.4893
vn 0.0352 -0.4144 -0.9094
vn 0.3348 -0.5863 0.7377
vn -0.3558 -0.5711 0.7398
vn 0.8418 -0.5051 -0.1903
vn -0.1669 -0.5828 -0.7953
vn -0.6582 -0.4046 -0.6349
vn -0.9597 -0.2285 0.1636
vn -0.8960 -0.3554 0.2662
vn -0.5938 0.7375 0.3217
vn -0.6978 0.7103 -0.0919
vn -0.6425 -0.7204 0.2611
vn -0.3354 -0.8590 0.3867
vn -0.9180 -0.1957 0.3450
vn -0.7760 -0.3469 0.5268
vn -0.8243 -0.4779 0.3036
vn 0.9164 0.2846 -0.2813
vn -0.4990 0.8538 0.1485
vn -0.8414 0.4481 -0.3020
vn -0.6773 0.3684 0.6369
vn -0.4100 0.2083 -0.8880
vn -0.4195 -0.0219 -0.9075
vn 0.0808 0.2233 -0.9714
vn 0.0649 0.6040 -0.7944
vn -0.3276 -0.0070 0.9448
vn -0.1806 0.3330 0.9255
vn 0.2756 0.7621 0.5859
vn 0.1971 0.3969 0.8964
vn -0.4471 -0.1763 -0.8769
vn -0.0934 -0.3043 -0.9480
vn 0.1247 -0.9888 0.0821
vn -0.4722 -0.6064 0.6397
vn -0.2138 0.8381 0.5019
vn -0.3343 0.8112 -0.4799
vn -0.3994 -0.1588 0.9029
vn -0.1725 -0.2470 0.9535
vn -0.5251 -0.3032 -0.7952
vn -0.2375 -0.5611 -0.7929
vn 0.0199 0.9998 0.0045
vn 0.1726 0.9837 -0.0514
vn -0.6395 0.7297 0.2420
vn -0.7389 -0.0879 -0.6681
vn -0.5626 -0.0225 0.8264
vn 0.4859 0.8579 -0.1672
vn -0.7218 -0.0239 -0.6917
vn -0.5632 -0.0428 0.8252
vn -0.5697 -0.0574 0.8198
vn -0.7246 -0.0632 -0.6862
vn -0.3338 0.1981 0.9216
vn -0.7548 0.4215 0.5026
vn -0.7596 0.4240 0.4931
vn -0.3851 0.2257 0.8948
vn 0.9534 -0.2574 -0.1572
vn 0.9658 -0.2317 0.1163
vn 0.9618 -0.2179 0.1656
vn 0.9541 -0.2577 -0.1529
vn -0.8697 0.4738 -0.1386
vn -0.7613 0.4084 -0.5037
vn -0.7759 0.4169 -0.4734
vn -0.8711 0.4748 -0.1259
vn -0.8649 0.4761 0.1589
vn -0.8644 0.4759 0.1626
vn -0.3151 0.1569 -0.9360
vn -0.3859 0.1963 -0.9014
vn 0.3859 -0.1963 0.9014
vn 0.3151 -0.1569 0.9360
vn -0.2403 0.2775 -0.9302
vn 0.3638 -0.0741 -0.9285
vn 0.2976 -0.0148 -0.9546
vn -0.2418 0.2779 -0.9297
vn 0.5264 0.1075 -0.8434
vn 0.8645 -0.1785 -0.4698
vn 0.8429 -0.1587 -0.5141
vn 0.4291 0.1757 -0.8860
vn -0.7193 0.3957 0.5709
vn -0.9302 0.3206 0.1787
vn -0.9180 0.3278 0.2231
vn -0.6578 0.4086 0.6327
vn -0.7073 0.6970 -0.1180
vn -0.6012 0.6694 -0.4363
vn -0.6005 0.6692 -0.4376
vn -0.7083 0.6976 -0.1078
vn 0.7368 -0.6443 -0.2048
vn 0.7637 -0.6288 0.1462
vn 0.7675 -0.6059 0.2094
vn 0.7365 -0.6434 -0.2088
vn 0.5444 0.2663 0.7954
vn -0.1431 0.6309 0.7626
vn -0.1340 0.6278 0.7668
vn 0.4247 0.3509 0.8346
vn -0.6901 0.7100 0.1402
vn -0.6825 0.7112 0.1687
vn 0.7347 -0.3919 0.5538
vn 0.6964 -0.2890 0.6569
vn 0.6680 -0.4659 -0.5802
vn 0.6469 -0.4195 -0.6369
vn -0.9319 0.3076 -0.1922
vn -0.7332 0.3452 -0.5859
vn -0.7108 0.3476 -0.6115
vn -0.9320 0.3076 -0.1919
vn 0.4166 0.0658 0.9067
vn 0.3343 0.1359 0.9326
vn -0.2063 0.3859 0.8992
vn -0.1737 0.3788 0.9090
vn -0.5562 0.7151 0.4235
vn -0.5256 0.7127 0.4645
vn 0.3851 -0.2257 -0.8948
vn 0.3338 -0.1981 -0.9216
vn 0.7596 -0.4240 -0.4931
vn 0.7548 -0.4215 -0.5026
vn 0.7759 -0.4169 0.4734
vn 0.7613 -0.4084 0.5037
vn -0.3328 -0.9424 -0.0320
vn -0.4736 -0.4468 0.7590
vn -0.8671 -0.1017 0.4877
vn -0.9077 -0.0522 0.4163
vn -0.5784 -0.3741 0.7249
vn 0.8952 -0.0897 0.4364
vn 0.8470 -0.0254 0.5309
vn -0.1695 0.5150 -0.8403
vn -0.2095 0.5331 -0.8197
vn -0.9858 0.0650 0.1549
vn -0.9853 0.0651 -0.1581
vn -0.9896 0.0719 -0.1249
vn -0.9888 0.0699 0.1320
vn 0.0925 -0.6742 -0.7327
vn 0.4868 -0.7477 -0.4517
vn 0.5186 -0.7501 -0.4104
vn 0.1177 -0.6818 -0.7220
vn 0.6389 -0.7524 -0.1603
vn 0.6390 -0.7611 0.1115
vn 0.6425 -0.7603 0.0955
vn 0.6426 -0.7526 -0.1435
vn 0.0713 -0.7046 0.7060
vn 0.0836 -0.7084 0.7009
vn -0.8559 -0.1029 -0.5068
vn -0.9039 -0.0491 -0.4249
vn -0.4435 -0.4352 -0.7835
vn -0.5462 -0.3697 -0.7516
vn 0.4813 -0.7731 0.4130
vn 0.5121 -0.7737 0.3731
vn 0.8711 -0.4748 0.1259
vn 0.8697 -0.4738 0.1386
vn 0.8644 -0.4759 -0.1626
vn 0.8649 -0.4761 -0.1589
usemtl Material.005
s 1
f 1/1/1 2/2/1 3/3/1 4/4/1
f 5/5/2 6/6/2 7/7/2 8/8/2
f 9/9/3 10/10/3 11/11/3 12/12/3
f 2/2/4 13/13/4 14/14/4 3/3/4
f 15/15/5 1/1/5 4/4/5 16/16/5
f 17/17/6 15/15/6 16/16/6 18/18/6
f 19/19/7 20/20/7 21/21/7 22/22/7
f 23/23/8 17/17/8 18/18/8 24/24/8
f 25/25/9 26/26/9 27/27/9 28/28/9
f 24/24/10 18/18/10 26/26/10 25/25/10
f 29/29/11 3/3/11 14/14/11 30/30/11
f 16/16/12 4/4/12 3/3/12 29/29/12
f 18/18/13 16/16/13 29/29/13 26/26/13
f 26/26/14 29/29/14 30/30/14 27/27/14
f 22/22/15 21/21/15 31/31/15 32/32/15
f 32/32/16 31/31/16 33/33/16 34/34/16
f 35/35/17 36/36/17 33/33/17 28/28/17
f 13/13/18 37/37/18 30/30/18 14/14/18
f 37/37/19 38/38/19 27/27/19 30/30/19
f 36/36/20 39/39/20 34/34/20 33/33/20
f 38/38/21 35/35/21 28/28/21 27/27/21
f 21/21/22 24/24/22 25/25/22 31/31/22
f 31/31/23 25/25/23 28/28/23 33/33/23
f 20/20/24 23/23/24 24/24/24 21/21/24
f 40/40/25 41/41/25 23/23/25 20/20/25
f 42/42/26 43/43/26 35/35/26 38/38/26
f 44/44/27 45/45/27 39/39/27 36/36/27
f 46/46/28 42/42/28 38/38/28 37/37/28
f 47/47/29 46/46/29 37/37/29 13/13/29
f 43/43/30 44/44/30 36/36/30 35/35/30
f 41/41/31 48/48/31 17/17/31 23/23/31
f 49/49/32 40/40/32 20/20/32 19/19/32
f 48/48/33 50/50/33 15/15/33 17/17/33
f 50/50/34 51/51/34 1/1/34 15/15/34
f 52/52/35 47/47/35 13/13/35 2/2/35
f 6/6/36 53/53/36 54/54/36 7/7/36
f 55/55/37 56/56/37 57/57/37 58/58/37
f 51/51/38 52/52/38 2/2/38 1/1/38
f 59/59/39 60/60/39 61/61/39 62/62/39
f 63/63/40 64/64/40 65/65/40 66/66/40
f 67/67/41 63/63/41 66/66/41 68/68/41
f 69/69/42 59/59/42 62/62/42 70/70/42
f 56/56/43 71/71/43 72/72/43 57/57/43
f 53/53/44 55/55/44 58/58/44 54/54/44
f 71/71/45 9/9/45 12/12/45 72/72/45
f 10/10/46 5/5/46 8/8/46 11/11/46
f 72/72/47 12/12/47 73/73/47 74/74/47
f 75/75/48 67/67/48 68/68/48 76/76/48
f 77/77/49 75/75/49 76/76/49 78/78/49
f 64/64/50 69/69/50 70/70/50 65/65/50
f 60/60/51 77/77/51 78/78/51 61/61/51
f 79/79/52 80/80/52 5/5/52 10/10/52
f 81/81/53 82/82/53 9/9/53 71/71/53
f 83/83/54 84/84/54 55/55/54 53/53/54
f 85/85/55 81/81/55 71/71/55 56/56/55
f 84/84/56 85/85/56 56/56/56 55/55/56
f 86/86/57 83/83/57 53/53/57 6/6/57
f 82/82/58 79/79/58 10/10/58 9/9/58
f 80/80/59 86/86/59 6/6/59 5/5/59
f 39/39/60 45/45/60 86/86/60 80/80/60
f 32/32/61 34/34/61 79/79/61 82/82/61
f 45/45/62 87/87/62 83/83/62 86/86/62
f 49/49/63 19/19/63 85/85/63 84/84/63
f 19/19/64 22/22/64 81/81/64 85/85/64
f 87/87/65 49/49/65 84/84/65 83/83/65
f 22/22/66 32/32/66 82/82/66 81/81/66
f 34/34/67 39/39/67 80/80/67 79/79/67
f 54/54/68 58/58/68 88/88/68 89/89/68
f 12/12/69 11/11/69 90/90/69 73/73/69
f 11/11/70 8/8/70 91/91/70 90/90/70
f 58/58/71 57/57/71 92/92/71 88/88/71
f 8/8/72 7/7/72 93/93/72 91/91/72
f 7/7/73 54/54/73 89/89/73 93/93/73
f 57/57/74 72/72/74 74/74/74 92/92/74
f 74/74/75 73/73/75 77/77/75 60/60/75
f 89/89/76 88/88/76 69/69/76 64/64/76
f 73/73/77 90/90/77 75/75/77 77/77/77
f 90/90/78 91/91/78 67/67/78 75/75/78
f 88/88/79 92/92/79 59/59/79 69/69/79
f 91/91/80 93/93/80 63/63/80 67/67/80
f 93/93/81 89/89/81 64/64/81 63/63/81
f 92/92/82 74/74/82 60/60/82 59/59/82
f 76/76/83 68/68/83 94/94/83 95/95/83
f 68/68/84 66/66/84 96/96/84 94/94/84
f 61/61/85 78/78/85 76/76/85 95/95/85 97/97/85 98/98/85 99/99/85 100/100/85
f 62/62/86 61/61/86 100/100/86 101/101/86
f 70/70/87 62/62/87 101/101/87 102/102/87
f 65/65/88 70/70/88 102/102/88 103/103/88 104/104/88 105/105/88 96/96/88 66/66/88
f 106/106/89 107/107/89 108/108/89 109/109/90 110/110/91 111/111/89 112/112/89 113/113/89 114/114/89 115/115/92 116/116/93
f 45/45/94 44/44/95 117/117/96 40/40/94 49/49/94 87/87/94
f 40/40/97 117/117/97 87/118/97
f 52/52/98 51/51/99 47/47/100
f 118/119/101 119/120/102 112/112/103 111/111/104
f 120/121/105 121/122/106 108/108/107 107/107/108
f 119/120/102 122/123/109 113/113/110 112/112/103
f 123/124/111 124/125/112 116/116/93 115/115/92
f 121/122/106 125/126/113 109/109/90 108/108/107
f 125/126/113 126/127/114 110/110/91 109/109/90
f 127/128/115 120/121/105 107/107/108 106/106/116
f 122/123/109 128/129/117 114/114/118 113/113/110
f 123/124/119 128/129/120 114/114/121 115/115/121
f 124/125/112 127/128/115 106/106/116 116/116/93
f 126/127/114 118/119/101 111/111/104 110/110/91
f 51/51/99 50/50/122 118/119/101 126/127/114
f 44/44/95 43/43/123 127/128/115 124/125/112
f 117/117/124 40/40/124 128/129/120 123/124/119
f 41/41/125 40/40/125 128/129/117 122/123/109
f 43/43/123 42/42/126 120/121/105 127/128/115
f 47/47/100 51/51/99 126/127/114 125/126/113
f 46/46/127 47/47/100 125/126/113 121/122/106
f 117/117/96 44/44/95 124/125/112 123/124/111
f 48/48/128 41/41/125 122/123/109 119/120/102
f 42/42/126 46/46/127 121/122/106 120/121/105
f 50/50/122 48/48/128 119/120/102 118/119/101
usemtl Material.006
f 129/130/129 130/131/130 131/132/131 132/133/132
f 133/134/133 134/135/134 135/136/135 136/137/136
f 137/138/137 138/139/138 139/140/139 140/141/140
f 130/142/130 141/143/141 142/144/142 131/145/131
f 138/146/138 143/147/143 144/148/144 139/149/139
f 145/150/145 129/130/129 132/133/132 146/151/146
f 101/152/147 100/153/148 147/154/149 148/155/150
f 147/156/151 149/157/152 150/158/153 151/159/154
f 105/160/155 104/161/156 152/162/157 153/163/158
f 154/164/159 155/165/160 138/139/161 137/138/162
f 98/166/163 97/167/164 134/135/165 133/134/166
f 156/168/167 157/169/168 129/130/169 145/150/170
f 152/162/171 154/164/159 137/138/162 141/143/172
f 97/167/164 95/170/173 158/171/174 134/135/165
f 99/172/175 98/166/163 133/134/166 149/157/176
f 103/173/177 102/174/178 155/165/179 154/164/180
f 95/175/173 94/176/181 156/168/182 158/177/174
f 94/176/181 96/178/183 157/169/184 156/168/182
f 104/161/156 103/173/177 154/164/180 152/162/157
f 102/179/178 101/152/147 148/155/150 155/180/179
f 96/178/183 105/181/155 153/182/158 157/169/184
f 100/153/148 99/183/175 149/184/176 147/154/149
f 153/185/185 152/186/171 141/187/172 130/188/186
f 157/189/168 153/185/185 130/188/186 129/190/169
f 143/147/143 151/191/187 159/192/188 144/148/144
f 151/191/187 150/193/189 160/194/190 159/192/188
f 161/195/191 145/150/145 146/151/146 162/196/192
f 163/197/193 164/198/193 165/199/193 166/200/193 167/201/193 168/202/193 169/203/193 170/204/193 171/205/193 172/206/193 173/207/193 174/208/193
f 141/143/141 137/138/137 140/141/140 142/144/142
f 132/209/194 131/145/195 165/210/196 164/211/197
f 158/171/198 156/212/167 145/213/170 161/214/199
f 148/155/200 147/154/151 151/191/154 143/147/201
f 142/144/202 140/141/203 167/215/204 166/216/205
f 159/217/206 160/218/207 171/205/208 170/204/209
f 175/219/210 176/220/211 173/207/212 172/206/213
f 146/151/214 132/133/194 164/221/197 163/222/215
f 140/141/203 139/140/216 168/223/217 167/215/204
f 139/140/216 144/224/218 169/225/219 168/223/217
f 144/148/218 159/192/206 170/226/209 169/227/219
f 131/145/195 142/144/202 166/216/205 165/210/196
f 176/220/211 162/228/220 174/208/221 173/207/212
f 162/228/220 146/229/214 163/197/215 174/208/221
f 134/135/134 158/171/198 161/214/199 135/136/135
f 149/157/152 133/134/133 136/137/136 150/158/153
f 135/136/222 161/214/191 162/230/192 176/231/223
f 150/158/189 136/137/224 175/232/225 160/233/190
f 136/137/224 135/136/222 176/231/223 175/232/225
f 160/218/207 175/219/210 172/206/213 171/205/208
f 155/234/160 148/235/200 143/236/201 138/237/161
